<svg xmlns="http://www.w3.org/2000/svg" xmlns:xlink="http://www.w3.org/1999/xlink" contentStyleType="text/css" data-diagram-type="CLASS" height="968px" preserveAspectRatio="none" style="width:1991px;height:968px;background:#FFFFFF;" version="1.1" viewBox="0 0 1991 968" width="1991px" zoomAndPan="magnify"><defs/><g><!--cluster mp--><g class="cluster" data-entity="mp" data-source-line="1" data-uid="ent0002" id="cluster_mp"><path d="M8.5,6 L106.9668,6 A3.75,3.75 0 0 1 109.4668,8.5 L116.4668,28.2969 L1981.5,28.2969 A2.5,2.5 0 0 1 1984,30.7969 L1984,958.5 A2.5,2.5 0 0 1 1981.5,961 L8.5,961 A2.5,2.5 0 0 1 6,958.5 L6,8.5 A2.5,2.5 0 0 1 8.5,6" fill="none" style="stroke:#000000;stroke-width:1.5;"/><line style="stroke:#000000;stroke-width:1.5;" x1="6" x2="116.4668" y1="28.2969" y2="28.2969"/><text fill="#000000" font-family="sans-serif" font-size="14" font-weight="bold" lengthAdjust="spacing" textLength="97.4668" x="10" y="20.9951">scafi-mp-api</text></g><!--cluster shared--><g class="cluster" data-entity="shared" data-source-line="2" data-uid="ent0003" id="cluster_shared"><path d="M32.5,49 L87.668,49 A3.75,3.75 0 0 1 90.168,51.5 L97.168,71.2969 L1395.5,71.2969 A2.5,2.5 0 0 1 1398,73.7969 L1398,829.5 A2.5,2.5 0 0 1 1395.5,832 L32.5,832 A2.5,2.5 0 0 1 30,829.5 L30,51.5 A2.5,2.5 0 0 1 32.5,49" fill="none" style="stroke:#000000;stroke-width:1.5;"/><line style="stroke:#000000;stroke-width:1.5;" x1="30" x2="97.168" y1="71.2969" y2="71.2969"/><text fill="#000000" font-family="sans-serif" font-size="14" font-weight="bold" lengthAdjust="spacing" textLength="54.168" x="34" y="63.9951">shared</text></g><!--cluster jsnative--><g class="cluster" data-entity="jsnative" data-source-line="54" data-uid="ent0024" id="cluster_jsnative"><path d="M1424.5,605 L1493.9688,605 A3.75,3.75 0 0 1 1496.4688,607.5 L1503.4688,627.2969 L1944.5,627.2969 A2.5,2.5 0 0 1 1947,629.7969 L1947,701.5 A2.5,2.5 0 0 1 1944.5,704 L1424.5,704 A2.5,2.5 0 0 1 1422,701.5 L1422,607.5 A2.5,2.5 0 0 1 1424.5,605" fill="none" style="stroke:#000000;stroke-width:1.5;"/><line style="stroke:#000000;stroke-width:1.5;" x1="1422" x2="1503.4688" y1="627.2969" y2="627.2969"/><text fill="#000000" font-family="sans-serif" font-size="14" font-weight="bold" lengthAdjust="spacing" textLength="68.4688" x="1426" y="619.9951">js-native</text></g><!--cluster js--><g class="cluster" data-entity="js" data-source-line="64" data-uid="ent0030" id="cluster_js"><path d="M1455.5,737 L1469.6318,737 A3.75,3.75 0 0 1 1472.1318,739.5 L1479.1318,759.2969 L1949.5,759.2969 A2.5,2.5 0 0 1 1952,761.7969 L1952,934.5 A2.5,2.5 0 0 1 1949.5,937 L1455.5,937 A2.5,2.5 0 0 1 1453,934.5 L1453,739.5 A2.5,2.5 0 0 1 1455.5,737" fill="none" style="stroke:#000000;stroke-width:1.5;"/><line style="stroke:#000000;stroke-width:1.5;" x1="1453" x2="1479.1318" y1="759.2969" y2="759.2969"/><text fill="#000000" font-family="sans-serif" font-size="14" font-weight="bold" lengthAdjust="spacing" textLength="13.1318" x="1457" y="751.9951">js</text></g><!--class PortableTypes--><g class="entity" data-entity="PortableTypes" data-source-line="3" data-uid="ent0004" id="entity_PortableTypes"><rect fill="#F1F1F1" height="137.4844" rx="2.5" ry="2.5" style="stroke:#181818;stroke-width:0.5;" width="387.6279" x="994" y="231"/><ellipse cx="1133.6377" cy="247" fill="#B4A7E5" rx="11" ry="11" style="stroke:#181818;stroke-width:1;"/><path d="M1129.5596,242.7656 L1129.5596,240.6094 L1136.9502,240.6094 L1136.9502,242.7656 L1134.4814,242.7656 L1134.4814,250.8438 L1136.9502,250.8438 L1136.9502,253 L1129.5596,253 L1129.5596,250.8438 L1132.0283,250.8438 L1132.0283,242.7656 L1129.5596,242.7656 Z " fill="#000000"/><text fill="#000000" font-family="sans-serif" font-size="14" font-style="italic" lengthAdjust="spacing" textLength="99.8525" x="1154.1377" y="251.8467">PortableTypes</text><line style="stroke:#181818;stroke-width:0.5;" x1="995" x2="1380.6279" y1="263" y2="263"/><ellipse cx="1005" cy="276.6484" fill="none" rx="3" ry="3" style="stroke:#038048;stroke-width:1;"/><text fill="#000000" font-family="sans-serif" font-size="14" lengthAdjust="spacing" textLength="103.8516" x="1014" y="279.9951">type Map[K, V]</text><ellipse cx="1005" cy="292.9453" fill="none" rx="3" ry="3" style="stroke:#038048;stroke-width:1;"/><text fill="#000000" font-family="sans-serif" font-size="14" lengthAdjust="spacing" textLength="361.6279" x="1014" y="296.292">given [K, V] =&gt; Iso[Map[K, V], collection.Map[K, V]]</text><line style="stroke:#181818;stroke-width:1;" x1="995" x2="1380.6279" y1="303.5938" y2="303.5938"/><ellipse cx="1005" cy="317.2422" fill="none" rx="3" ry="3" style="stroke:#038048;stroke-width:1;"/><text fill="#000000" font-family="sans-serif" font-size="14" lengthAdjust="spacing" textLength="151.9561" x="1014" y="320.5889">type Function1[T1, R]</text><ellipse cx="1005" cy="333.5391" fill="none" rx="3" ry="3" style="stroke:#038048;stroke-width:1;"/><text fill="#000000" font-family="sans-serif" font-size="14" lengthAdjust="spacing" textLength="337.9619" x="1014" y="336.8857">given [T1, R] =&gt; Iso[Function1[T1, R], T1 =&gt; R]</text><line style="stroke:#181818;stroke-width:1;" x1="995" x2="1380.6279" y1="344.1875" y2="344.1875"/><ellipse cx="1005" cy="357.8359" fill="none" rx="3" ry="3" style="stroke:#038048;stroke-width:1;"/><text fill="#000000" font-family="sans-serif" font-size="14" lengthAdjust="spacing" textLength="80.3154" x="1014" y="361.1826">other types</text></g><g class="entity" data-entity="GMN5" data-source-line="13" data-uid="ent0006" id="entity_GMN5"><path d="M1040.5,84 L1040.5,169.6641 A0,0 0 0 0 1040.5,169.6641 L1184,169.6641 L1188,230.96 L1192,169.6641 L1335.0459,169.6641 A0,0 0 0 0 1335.0459,169.6641 L1335.0459,94 L1325.0459,84 L1040.5,84 A0,0 0 0 0 1040.5,84" fill="#FEFFDD" style="stroke:#181818;stroke-width:0.5;"/><path d="M1325.0459,84 L1325.0459,94 L1335.0459,94 L1325.0459,84" fill="#FEFFDD" style="stroke:#181818;stroke-width:0.5;"/><text fill="#000000" font-family="sans-serif" font-size="13" lengthAdjust="spacing" textLength="269.4136" x="1046.5" y="101.0669">Portable types among different platforms</text><text fill="#000000" font-family="sans-serif" font-size="13" lengthAdjust="spacing" textLength="227.2271" x="1046.5" y="116.1997">along with their Scala conversions.</text><text fill="#000000" font-family="sans-serif" font-size="13" lengthAdjust="spacing" textLength="4.1323" x="1046.5" y="131.3325">&#160;</text><text fill="#000000" font-family="sans-serif" font-size="13" lengthAdjust="spacing" textLength="235.5171" x="1046.5" y="146.4653">All portable libraries are built on top</text><text fill="#000000" font-family="sans-serif" font-size="13" lengthAdjust="spacing" textLength="156.019" x="1046.5" y="161.5981">of these agnostic types.</text></g><!--class PortableLibrary--><g class="entity" data-entity="PortableLibrary" data-source-line="20" data-uid="ent0008" id="entity_PortableLibrary"><rect fill="#F1F1F1" height="113.1875" rx="2.5" ry="2.5" style="stroke:#181818;stroke-width:0.5;" width="528.2158" x="356" y="243"/><ellipse cx="562.271" cy="259" fill="#B4A7E5" rx="11" ry="11" style="stroke:#181818;stroke-width:1;"/><path d="M558.1929,254.7656 L558.1929,252.6094 L565.5835,252.6094 L565.5835,254.7656 L563.1147,254.7656 L563.1147,262.8438 L565.5835,262.8438 L565.5835,265 L558.1929,265 L558.1929,262.8438 L560.6616,262.8438 L560.6616,254.7656 L558.1929,254.7656 Z " fill="#000000"/><text fill="#000000" font-family="sans-serif" font-size="14" font-style="italic" lengthAdjust="spacing" textLength="107.1738" x="582.771" y="263.8467">PortableLibrary</text><line style="stroke:#181818;stroke-width:0.5;" x1="357" x2="883.2158" y1="275" y2="275"/><ellipse cx="367" cy="288.6484" fill="none" rx="3" ry="3" style="stroke:#038048;stroke-width:1;"/><text fill="#000000" font-family="sans-serif" font-size="14" lengthAdjust="spacing" textLength="282.0986" x="376" y="291.9951">type Language &lt;: AggregateFoundation</text><ellipse cx="367" cy="304.9453" fill="none" rx="3" ry="3" style="stroke:#038048;stroke-width:1;"/><text fill="#000000" font-family="sans-serif" font-size="14" lengthAdjust="spacing" textLength="143.4385" x="376" y="308.292">language: Language</text><line style="stroke:#181818;stroke-width:1;" x1="357" x2="883.2158" y1="315.5938" y2="315.5938"/><ellipse cx="367" cy="329.2422" fill="none" rx="3" ry="3" style="stroke:#038048;stroke-width:1;"/><text fill="#000000" font-family="sans-serif" font-size="14" lengthAdjust="spacing" textLength="169.2031" x="376" y="332.5889">type SharedData[Value]</text><ellipse cx="367" cy="345.5391" fill="none" rx="3" ry="3" style="stroke:#038048;stroke-width:1;"/><text fill="#000000" font-family="sans-serif" font-size="14" lengthAdjust="spacing" textLength="502.2158" x="376" y="348.8857">given [Value] =&gt; Iso[SharedData[Value], language.SharedData[Value]]</text></g><!--class PortableExchangeCalculusLibrary--><g class="entity" data-entity="PortableExchangeCalculusLibrary" data-source-line="29" data-uid="ent0011" id="entity_PortableExchangeCalculusLibrary"><rect fill="#F1F1F1" height="113.1875" rx="2.5" ry="2.5" style="stroke:#181818;stroke-width:0.5;" width="529.0635" x="852.5" y="437"/><ellipse cx="995.4326" cy="453" fill="#B4A7E5" rx="11" ry="11" style="stroke:#181818;stroke-width:1;"/><path d="M991.3545,448.7656 L991.3545,446.6094 L998.7451,446.6094 L998.7451,448.7656 L996.2764,448.7656 L996.2764,456.8438 L998.7451,456.8438 L998.7451,459 L991.3545,459 L991.3545,456.8438 L993.8232,456.8438 L993.8232,448.7656 L991.3545,448.7656 Z " fill="#000000"/><text fill="#000000" font-family="sans-serif" font-size="14" font-style="italic" lengthAdjust="spacing" textLength="234.6982" x="1015.9326" y="457.8467">PortableExchangeCalculusLibrary</text><line style="stroke:#181818;stroke-width:0.5;" x1="853.5" x2="1380.5635" y1="469" y2="469"/><ellipse cx="863.5" cy="482.6484" fill="none" rx="3" ry="3" style="stroke:#038048;stroke-width:1;"/><text fill="#000000" font-family="sans-serif" font-size="14" lengthAdjust="spacing" textLength="418.9678" x="872.5" y="485.9951">type Language &lt;: AggregateFoundation &amp; ExchangeSyntax</text><line style="stroke:#181818;stroke-width:0.5;" x1="853.5" x2="1380.5635" y1="493.2969" y2="493.2969"/><ellipse cx="863.5" cy="523.2422" fill="#84BE84" rx="3" ry="3" style="stroke:#038048;stroke-width:1;"/><text fill="#000000" font-family="sans-serif" font-size="14" font-weight="bold" lengthAdjust="spacing" textLength="81.1221" x="872.5" y="510.292">@JSExport</text><text fill="#000000" font-family="sans-serif" font-size="14" lengthAdjust="spacing" textLength="316.4082" x="958.0723" y="510.292">exchange[Value](initial: SharedData[Value])(</text><text fill="#000000" font-family="sans-serif" font-size="14" lengthAdjust="spacing" textLength="485.2627" x="890.3008" y="526.5889">f: Function1[SharedData[Value], ReturnSending[SharedData[Value]]]</text><text fill="#000000" font-family="sans-serif" font-size="14" lengthAdjust="spacing" textLength="148.1074" x="872.5" y="542.8857">): SharedData[Value]</text></g><!--class PortableBranchingLibrary--><g class="entity" data-entity="PortableBranchingLibrary" data-source-line="34" data-uid="ent0013" id="entity_PortableBranchingLibrary"><rect fill="#F1F1F1" height="129.4844" rx="2.5" ry="2.5" style="stroke:#181818;stroke-width:0.5;" width="357.666" x="46" y="429"/><ellipse cx="131.48" cy="445" fill="#B4A7E5" rx="11" ry="11" style="stroke:#181818;stroke-width:1;"/><path d="M127.4019,440.7656 L127.4019,438.6094 L134.7925,438.6094 L134.7925,440.7656 L132.3237,440.7656 L132.3237,448.8438 L134.7925,448.8438 L134.7925,451 L127.4019,451 L127.4019,448.8438 L129.8706,448.8438 L129.8706,440.7656 L127.4019,440.7656 Z " fill="#000000"/><text fill="#000000" font-family="sans-serif" font-size="14" font-style="italic" lengthAdjust="spacing" textLength="178.2061" x="151.98" y="449.8467">PortableBranchingLibrary</text><line style="stroke:#181818;stroke-width:0.5;" x1="47" x2="402.666" y1="461" y2="461"/><ellipse cx="57" cy="482.7969" fill="none" rx="3" ry="3" style="stroke:#038048;stroke-width:1;"/><text fill="#000000" font-family="sans-serif" font-size="14" lengthAdjust="spacing" textLength="282.0986" x="66" y="477.9951">type Language &lt;: AggregateFoundation</text><text fill="#000000" font-family="sans-serif" font-size="14" lengthAdjust="spacing" textLength="134.7979" x="83.8008" y="494.292">&amp; BranchingSyntax</text><line style="stroke:#181818;stroke-width:0.5;" x1="47" x2="402.666" y1="501.5938" y2="501.5938"/><ellipse cx="57" cy="531.5391" fill="#84BE84" rx="3" ry="3" style="stroke:#038048;stroke-width:1;"/><text fill="#000000" font-family="sans-serif" font-size="14" font-weight="bold" lengthAdjust="spacing" textLength="81.1221" x="66" y="518.5889">@JSExport</text><text fill="#000000" font-family="sans-serif" font-size="14" lengthAdjust="spacing" textLength="246.0938" x="151.5723" y="518.5889">branch[Value](condition: Boolean)(</text><text fill="#000000" font-family="sans-serif" font-size="14" lengthAdjust="spacing" textLength="129.9307" x="83.8008" y="534.8857">thenBranch: Value</text><text fill="#000000" font-family="sans-serif" font-size="14" lengthAdjust="spacing" textLength="191.5771" x="66" y="551.1826">)(elseBranch: Value): Value</text></g><!--class PortableCommonLibrary--><g class="entity" data-entity="PortableCommonLibrary" data-source-line="39" data-uid="ent0015" id="entity_PortableCommonLibrary"><rect fill="#F1F1F1" height="80.5938" rx="2.5" ry="2.5" style="stroke:#181818;stroke-width:0.5;" width="378.1807" x="439" y="453"/><ellipse cx="538.7261" cy="469" fill="#B4A7E5" rx="11" ry="11" style="stroke:#181818;stroke-width:1;"/><path d="M534.6479,464.7656 L534.6479,462.6094 L542.0386,462.6094 L542.0386,464.7656 L539.5698,464.7656 L539.5698,472.8438 L542.0386,472.8438 L542.0386,475 L534.6479,475 L534.6479,472.8438 L537.1167,472.8438 L537.1167,464.7656 L534.6479,464.7656 Z " fill="#000000"/><text fill="#000000" font-family="sans-serif" font-size="14" font-style="italic" lengthAdjust="spacing" textLength="170.2285" x="559.2261" y="473.8467">PortableCommonLibrary</text><line style="stroke:#181818;stroke-width:0.5;" x1="440" x2="816.1807" y1="485" y2="485"/><ellipse cx="450" cy="498.6484" fill="none" rx="3" ry="3" style="stroke:#038048;stroke-width:1;"/><text fill="#000000" font-family="sans-serif" font-size="14" font-weight="bold" lengthAdjust="spacing" textLength="81.1221" x="459" y="501.9951">@JSExport</text><text fill="#000000" font-family="sans-serif" font-size="14" lengthAdjust="spacing" textLength="173.9814" x="544.5723" y="501.9951">localId: language.LocalId</text><ellipse cx="450" cy="514.9453" fill="none" rx="3" ry="3" style="stroke:#038048;stroke-width:1;"/><text fill="#000000" font-family="sans-serif" font-size="14" font-weight="bold" lengthAdjust="spacing" textLength="81.1221" x="459" y="518.292">@JSExport</text><text fill="#000000" font-family="sans-serif" font-size="14" lengthAdjust="spacing" textLength="266.6084" x="544.5723" y="518.292">device: SharedData[language.Device]</text><line style="stroke:#181818;stroke-width:0.5;" x1="440" x2="816.1807" y1="525.5938" y2="525.5938"/></g><!--class FullPortableLibrary--><g class="entity" data-entity="FullPortableLibrary" data-source-line="44" data-uid="ent0017" id="entity_FullPortableLibrary"><rect fill="#F1F1F1" height="48" rx="2.5" ry="2.5" style="stroke:#181818;stroke-width:0.5;" width="163.8789" x="729" y="640"/><ellipse cx="744" cy="656" fill="#B4A7E5" rx="11" ry="11" style="stroke:#181818;stroke-width:1;"/><path d="M739.9219,651.7656 L739.9219,649.6094 L747.3125,649.6094 L747.3125,651.7656 L744.8438,651.7656 L744.8438,659.8438 L747.3125,659.8438 L747.3125,662 L739.9219,662 L739.9219,659.8438 L742.3906,659.8438 L742.3906,651.7656 L739.9219,651.7656 Z " fill="#000000"/><text fill="#000000" font-family="sans-serif" font-size="14" font-style="italic" lengthAdjust="spacing" textLength="131.8789" x="758" y="660.8467">FullPortableLibrary</text><line style="stroke:#181818;stroke-width:0.5;" x1="730" x2="891.8789" y1="672" y2="672"/><line style="stroke:#181818;stroke-width:0.5;" x1="730" x2="891.8789" y1="680" y2="680"/></g><g class="entity" data-entity="GMN18" data-source-line="46" data-uid="ent0019" id="entity_GMN18"><path d="M681,776 L681,816.2656 A0,0 0 0 0 681,816.2656 L941.002,816.2656 A0,0 0 0 0 941.002,816.2656 L941.002,786 L931.002,776 L815,776 L811,688.24 L807,776 L681,776 A0,0 0 0 0 681,776" fill="#FEFFDD" style="stroke:#181818;stroke-width:0.5;"/><path d="M931.002,776 L931.002,786 L941.002,786 L931.002,776" fill="#FEFFDD" style="stroke:#181818;stroke-width:0.5;"/><text fill="#000000" font-family="sans-serif" font-size="13" lengthAdjust="spacing" textLength="234.8696" x="687" y="793.0669">Aggregates all the portable libraries</text><text fill="#000000" font-family="sans-serif" font-size="13" lengthAdjust="spacing" textLength="174.1289" x="687" y="808.1997">in a singe entry point trait.</text></g><!--class PortableFieldBasedSharedData--><g class="entity" data-entity="PortableFieldBasedSharedData" data-source-line="55" data-uid="ent0025" id="entity_PortableFieldBasedSharedData"><rect fill="#F1F1F1" height="48" rx="2.5" ry="2.5" style="stroke:#181818;stroke-width:0.5;" width="249.5537" x="1438" y="640"/><ellipse cx="1453" cy="656" fill="#B4A7E5" rx="11" ry="11" style="stroke:#181818;stroke-width:1;"/><path d="M1448.9219,651.7656 L1448.9219,649.6094 L1456.3125,649.6094 L1456.3125,651.7656 L1453.8438,651.7656 L1453.8438,659.8438 L1456.3125,659.8438 L1456.3125,662 L1448.9219,662 L1448.9219,659.8438 L1451.3906,659.8438 L1451.3906,651.7656 L1448.9219,651.7656 Z " fill="#000000"/><text fill="#000000" font-family="sans-serif" font-size="14" font-style="italic" lengthAdjust="spacing" textLength="217.5537" x="1467" y="660.8467">PortableFieldBasedSharedData</text><line style="stroke:#181818;stroke-width:0.5;" x1="1439" x2="1686.5537" y1="672" y2="672"/><line style="stroke:#181818;stroke-width:0.5;" x1="1439" x2="1686.5537" y1="680" y2="680"/></g><g class="entity" data-entity="GMN27" data-source-line="59" data-uid="ent0028" id="entity_GMN27"><path d="M1723,644 L1723,660 L1688.04,664 L1723,668 L1723,684.2656 A0,0 0 0 0 1723,684.2656 L1930.9956,684.2656 A0,0 0 0 0 1930.9956,684.2656 L1930.9956,654 L1920.9956,644 L1723,644 A0,0 0 0 0 1723,644" fill="#FEFFDD" style="stroke:#181818;stroke-width:0.5;"/><path d="M1920.9956,644 L1920.9956,654 L1930.9956,654 L1920.9956,644" fill="#FEFFDD" style="stroke:#181818;stroke-width:0.5;"/><text fill="#000000" font-family="sans-serif" font-size="13" lengthAdjust="spacing" textLength="178.4834" x="1729" y="661.0669">Non-JVM portable definition</text><text fill="#000000" font-family="sans-serif" font-size="13" lengthAdjust="spacing" textLength="186.9956" x="1729" y="676.1997">of a field-based shared data.</text></g><!--class JSTypes--><g class="entity" data-entity="JSTypes" data-source-line="65" data-uid="ent0031" id="entity_JSTypes"><rect fill="#F1F1F1" height="48" rx="2.5" ry="2.5" style="stroke:#181818;stroke-width:0.5;" width="86.6465" x="1770.5" y="772"/><ellipse cx="1785.5" cy="788" fill="#B4A7E5" rx="11" ry="11" style="stroke:#181818;stroke-width:1;"/><path d="M1781.4219,783.7656 L1781.4219,781.6094 L1788.8125,781.6094 L1788.8125,783.7656 L1786.3438,783.7656 L1786.3438,791.8438 L1788.8125,791.8438 L1788.8125,794 L1781.4219,794 L1781.4219,791.8438 L1783.8906,791.8438 L1783.8906,783.7656 L1781.4219,783.7656 Z " fill="#000000"/><text fill="#000000" font-family="sans-serif" font-size="14" font-style="italic" lengthAdjust="spacing" textLength="54.6465" x="1799.5" y="792.8467">JSTypes</text><line style="stroke:#181818;stroke-width:0.5;" x1="1771.5" x2="1856.1465" y1="804" y2="804"/><line style="stroke:#181818;stroke-width:0.5;" x1="1771.5" x2="1856.1465" y1="812" y2="812"/></g><g class="entity" data-entity="GMN33" data-source-line="67" data-uid="ent0034" id="entity_GMN33"><path d="M1692.5,881 L1692.5,921.2656 A0,0 0 0 0 1692.5,921.2656 L1935.8521,921.2656 A0,0 0 0 0 1935.8521,921.2656 L1935.8521,891 L1925.8521,881 L1818,881 L1814,820.12 L1810,881 L1692.5,881 A0,0 0 0 0 1692.5,881" fill="#FEFFDD" style="stroke:#181818;stroke-width:0.5;"/><path d="M1925.8521,881 L1925.8521,891 L1935.8521,891 L1925.8521,881" fill="#FEFFDD" style="stroke:#181818;stroke-width:0.5;"/><text fill="#000000" font-family="sans-serif" font-size="13" lengthAdjust="spacing" textLength="118.9741" x="1698.5" y="898.0669">JavaScript-specific</text><text fill="#000000" font-family="sans-serif" font-size="13" lengthAdjust="spacing" textLength="222.3521" x="1698.5" y="913.1997">implementation of portable types.</text></g><!--class FullLibrary--><g class="entity" data-entity="FullLibrary" data-source-line="71" data-uid="ent0036" id="entity_FullLibrary"><rect fill="#F1F1F1" height="48" rx="2.5" ry="2.5" style="stroke:#181818;stroke-width:0.5;" width="105.6572" x="1510" y="772"/><ellipse cx="1525" cy="788" fill="#ADD1B2" rx="11" ry="11" style="stroke:#181818;stroke-width:1;"/><path d="M1527.9688,793.6406 Q1527.3906,793.9375 1526.75,794.0781 Q1526.1094,794.2344 1525.4063,794.2344 Q1522.9063,794.2344 1521.5781,792.5938 Q1520.2656,790.9375 1520.2656,787.8125 Q1520.2656,784.6875 1521.5781,783.0313 Q1522.9063,781.375 1525.4063,781.375 Q1526.1094,781.375 1526.75,781.5313 Q1527.4063,781.6875 1527.9688,781.9844 L1527.9688,784.7031 Q1527.3438,784.125 1526.75,783.8594 Q1526.1563,783.5781 1525.5313,783.5781 Q1524.1875,783.5781 1523.5,784.6563 Q1522.8125,785.7188 1522.8125,787.8125 Q1522.8125,789.9063 1523.5,790.9844 Q1524.1875,792.0469 1525.5313,792.0469 Q1526.1563,792.0469 1526.75,791.7813 Q1527.3438,791.5 1527.9688,790.9219 L1527.9688,793.6406 Z " fill="#000000"/><text fill="#000000" font-family="sans-serif" font-size="14" lengthAdjust="spacing" textLength="73.6572" x="1539" y="792.8467">FullLibrary</text><line style="stroke:#181818;stroke-width:0.5;" x1="1511" x2="1614.6572" y1="804" y2="804"/><line style="stroke:#181818;stroke-width:0.5;" x1="1511" x2="1614.6572" y1="812" y2="812"/></g><g class="entity" data-entity="GMN41" data-source-line="74" data-uid="ent0042" id="entity_GMN41"><path d="M1469,881 L1469,921.2656 A0,0 0 0 0 1469,921.2656 L1657.3115,921.2656 A0,0 0 0 0 1657.3115,921.2656 L1657.3115,891 L1647.3115,881 L1567,881 L1563,820.12 L1559,881 L1469,881 A0,0 0 0 0 1469,881" fill="#FEFFDD" style="stroke:#181818;stroke-width:0.5;"/><path d="M1647.3115,881 L1647.3115,891 L1657.3115,891 L1647.3115,881" fill="#FEFFDD" style="stroke:#181818;stroke-width:0.5;"/><text fill="#000000" font-family="sans-serif" font-size="13" lengthAdjust="spacing" textLength="163.1792" x="1475" y="898.0669">Entry point for JavaScript</text><text fill="#000000" font-family="sans-serif" font-size="13" lengthAdjust="spacing" textLength="115.2544" x="1475" y="913.1997">portable libraries.</text></g><!--link PortableTypes to PortableLibrary--><g class="link" data-entity-1="PortableTypes" data-entity-2="PortableLibrary" data-source-line="27" data-uid="lnk10" id="link_PortableTypes_PortableLibrary"><path codeLine="27" d="M987.7,299.5 C952.37,299.5 932.98,299.5 896.05,299.5" fill="none" id="PortableTypes-PortableLibrary" style="stroke:#181818;stroke-width:1;"/><polygon fill="#181818" points="993.7,299.5,984.7,295.5,988.7,299.5,984.7,303.5,993.7,299.5" style="stroke:#181818;stroke-width:1;"/><polygon fill="none" points="884.05,299.5,890.05,303.5,896.05,299.5,890.05,295.5,884.05,299.5" style="stroke:#181818;stroke-width:1;"/><text fill="#000000" font-family="sans-serif" font-size="13" lengthAdjust="spacing" textLength="73.2329" x="902.5" y="292.5669">{self-type}</text></g><!--reverse link PortableLibrary to PortableExchangeCalculusLibrary--><g class="link" data-entity-1="PortableLibrary" data-entity-2="PortableExchangeCalculusLibrary" data-source-line="30" data-uid="lnk12" id="link_PortableLibrary_PortableExchangeCalculusLibrary"><path d="M780.5406,362.5166 C846.3406,387.9366 907.33,411.5 973.14,436.92" fill="none" id="PortableLibrary-backto-PortableExchangeCalculusLibrary" style="stroke:#181818;stroke-width:1;"/><polygon fill="none" points="763.75,356.03,778.3784,368.1134,782.7028,356.9197,763.75,356.03" style="stroke:#181818;stroke-width:1;"/></g><!--reverse link PortableLibrary to PortableBranchingLibrary--><g class="link" data-entity-1="PortableLibrary" data-entity-2="PortableBranchingLibrary" data-source-line="35" data-uid="lnk14" id="link_PortableLibrary_PortableBranchingLibrary"><path d="M489.5616,363.9 C442.6216,386.72 404.2,405.4 355.68,428.98" fill="none" id="PortableLibrary-backto-PortableBranchingLibrary" style="stroke:#181818;stroke-width:1;"/><polygon fill="none" points="505.75,356.03,486.9383,358.5039,492.185,369.2961,505.75,356.03" style="stroke:#181818;stroke-width:1;"/></g><!--reverse link PortableLibrary to PortableCommonLibrary--><g class="link" data-entity-1="PortableLibrary" data-entity-2="PortableCommonLibrary" data-source-line="40" data-uid="lnk16" id="link_PortableLibrary_PortableCommonLibrary"><path d="M623.0639,374.0142 C624.3639,405.0242 625.19,424.95 626.35,452.94" fill="none" id="PortableLibrary-backto-PortableCommonLibrary" style="stroke:#181818;stroke-width:1;"/><polygon fill="none" points="622.31,356.03,617.0692,374.2655,629.0587,373.7629,622.31,356.03" style="stroke:#181818;stroke-width:1;"/></g><!--link PortableExchangeCalculusLibrary to FullPortableLibrary--><g class="link" data-entity-1="PortableExchangeCalculusLibrary" data-entity-2="FullPortableLibrary" data-source-line="49" data-uid="lnk21" id="link_PortableExchangeCalculusLibrary_FullPortableLibrary"><path codeLine="49" d="M1015.96,550.14 C960.6,580.62 910.708,608.0984 868.898,631.1184" fill="none" id="PortableExchangeCalculusLibrary-to-FullPortableLibrary" style="stroke:#181818;stroke-width:1;"/><polygon fill="none" points="853.13,639.8,871.7919,636.3744,866.0041,625.8624,853.13,639.8" style="stroke:#181818;stroke-width:1;"/></g><!--link PortableBranchingLibrary to FullPortableLibrary--><g class="link" data-entity-1="PortableBranchingLibrary" data-entity-2="FullPortableLibrary" data-source-line="50" data-uid="lnk22" id="link_PortableBranchingLibrary_FullPortableLibrary"><path codeLine="50" d="M404.19,552.66 C410.19,554.48 416.14,556.27 422,558 C527.31,589.17 632.3333,617.0933 711.2933,637.5133" fill="none" id="PortableBranchingLibrary-to-FullPortableLibrary" style="stroke:#181818;stroke-width:1;"/><polygon fill="none" points="728.72,642.02,712.7956,631.7044,709.7911,643.3221,728.72,642.02" style="stroke:#181818;stroke-width:1;"/></g><!--link PortableCommonLibrary to FullPortableLibrary--><g class="link" data-entity-1="PortableCommonLibrary" data-entity-2="FullPortableLibrary" data-source-line="51" data-uid="lnk23" id="link_PortableCommonLibrary_FullPortableLibrary"><path codeLine="51" d="M670.91,534.01 C706.61,566.88 742.9873,600.3786 772.5873,627.6286" fill="none" id="PortableCommonLibrary-to-FullPortableLibrary" style="stroke:#181818;stroke-width:1;"/><polygon fill="none" points="785.83,639.82,776.651,623.2144,768.5235,632.0429,785.83,639.82" style="stroke:#181818;stroke-width:1;"/></g><!--reverse link PortableExchangeCalculusLibrary to PortableFieldBasedSharedData--><g class="link" data-entity-1="PortableExchangeCalculusLibrary" data-entity-2="PortableFieldBasedSharedData" data-source-line="56" data-uid="lnk26" id="link_PortableExchangeCalculusLibrary_PortableFieldBasedSharedData"><path d="M1288.8199,556.2089 C1329.9099,571.1989 1357.26,581.42 1398,597 C1434.31,610.88 1474.85,627.09 1506.66,639.97" fill="none" id="PortableExchangeCalculusLibrary-backto-PortableFieldBasedSharedData" style="stroke:#181818;stroke-width:1;"/><polygon fill="none" points="1271.91,550.04,1286.7636,561.8455,1290.8762,550.5722,1271.91,550.04" style="stroke:#181818;stroke-width:1;"/></g><!--reverse link PortableTypes to JSTypes--><g class="link" data-entity-1="PortableTypes" data-entity-2="JSTypes" data-source-line="65" data-uid="lnk32" id="link_PortableTypes_JSTypes"><path d="M1400.1992,319.2339 C1580.4092,345.6839 1821.24,412.86 1947,597 C1975.83,639.21 1971.79,667.3 1947,712 C1928.05,746.15 1888.56,768.1 1857.5,780.79" fill="none" id="PortableTypes-backto-JSTypes" style="stroke:#181818;stroke-width:1;"/><polygon fill="none" points="1382.39,316.62,1399.3279,325.1703,1401.0705,313.2975,1382.39,316.62" style="stroke:#181818;stroke-width:1;"/></g><!--reverse link FullPortableLibrary to FullLibrary--><g class="link" data-entity-1="FullPortableLibrary" data-entity-2="FullLibrary" data-source-line="71" data-uid="lnk37" id="link_FullPortableLibrary_FullLibrary"><path d="M911.4074,667.6243 C1026.1174,671.9243 1221.7,685 1398,729 C1438.86,739.2 1483.06,757.28 1515.42,771.95" fill="none" id="FullPortableLibrary-backto-FullLibrary" style="stroke:#181818;stroke-width:1;stroke-dasharray:7.0,7.0;"/><polygon fill="none" points="893.42,666.95,911.1826,673.6201,911.6321,661.6285,893.42,666.95" style="stroke:#181818;stroke-width:1;"/></g><!--reverse link PortableFieldBasedSharedData to FullLibrary--><g class="link" data-entity-1="PortableFieldBasedSharedData" data-entity-2="FullLibrary" data-source-line="71" data-uid="lnk38" id="link_PortableFieldBasedSharedData_FullLibrary"><path d="M1563,706.24 C1563,729.9 1563,748.37 1563,771.96" fill="none" id="PortableFieldBasedSharedData-backto-FullLibrary" style="stroke:#181818;stroke-width:1;stroke-dasharray:7.0,7.0;"/><polygon fill="none" points="1563,688.24,1557,706.24,1569,706.24,1563,688.24" style="stroke:#181818;stroke-width:1;"/></g><!--link FullLibrary to JSTypes--><g class="link" data-entity-1="FullLibrary" data-entity-2="JSTypes" data-source-line="72" data-uid="lnk40" id="link_FullLibrary_JSTypes"><path codeLine="72" d="M1616.44,796 C1667.76,796 1701.08,796 1752.4,796" fill="none" id="FullLibrary-to-JSTypes" style="stroke:#181818;stroke-width:1;stroke-dasharray:7.0,7.0;"/><polygon fill="none" points="1770.4,796,1752.4,790,1752.4,802,1770.4,796" style="stroke:#181818;stroke-width:1;"/></g><!--SRC=[jLPBJzmm4BxpAqOS4D1D9AuHHUMr4XIgYaLSWCDiCicQEdPaEriGyDzh9vkmpcR3LcfpWVKy_SqtCoum_eKPmRQECML1NWHOi6r03Na1hrjWlsAXecUeA5aSkey9Goh5cE2dL0Qdd6vV2j9B6kxxOkmXN6Dn_tq4Tu- -B6Dp4b1BuEiHN6XvtwgE89QSKsoO565xwdi8Wg0dshWKbTN1_Ut126xwWzQY9chNP0It1qvsyqayQMQam4NLhU2z_Kz8Gs1a0JBrGVASD9BQ3M0kHGO9IrDI90mK74qgLQx1iqBkr7upCmER0rCmYP6ZnKpCIMbx5HrkUGR7d4FHXE9igb0n5quHJ4l63KXHvUePsSIjTqs0cP3QiBXECcoLI2JLDRS6U75L1NlfPSOLYgnq_3gCu3ZB56LeQ2nBaQ2hXs_15yfHQxO16oOLSS_GuFqTyfBwwL2B6Zgis8oWYHsko1vxAj-zkWmufIOuwlHA1A-QU1guHD-783n_ZcSs0Jf57fUyr8rVUZQs0lfVG0qxq4IPl0Y3pxwB_VrlbvFpPyUW_NqRjzPSGB3B13CCURIAzjxkWt0EqcYfBtlmlI5JAZ6njs4YMrLuV7mGUz50CGVXEr4eufbr_3zmg- -t0ssGp-6RLgeDUBPd4-PSHN0Y9ISK3MYszqJjDe9AsOAmIroJTxYt-BiP5gSojnFcBu7mq-VIpfgB9FfeYglwPCWeeJcBoIjXQtvMoRgDr7E9SSbv9rL_sawbCJ9tSsj8jPg7JIdj3BIZqKBTDnuz4oO0GTiAavrxng9KI9iQ68NCz8p4xZ1OryH1y7OqcEvQ6cziwHTzq6n1dcRlRp_fG5YYpwbw5ppf-iVWGs3CY2Sdg2dvA7RBjBm8wxT4-1akhrlhTgfYsSmiRzM-Y5xfVaWHNDvTVvGueRGQMhQ1kniF8NNkWgdprpnyRBFZcXft47lIlU1SJkgPlnu7_sdGeVF2tClr4kSuYHKhJA0BYbbgzxDFsBpWb5kkrfFAkYcynyRG7eyvQbsnfAb7wsqv-HuQZPou8KguKOaQS0xVGhSeGo_kK8VtTVRvKc_QbzCIJ3uwg-s-ji3lVm00]--></g></svg>